<?xml version="1.0" encoding="UTF-8"?>
<svg version="1.1" viewBox="0 0 400 504.97" xmlns="http://www.w3.org/2000/svg">
<g fill-rule="evenodd">
<path d="m180 8.8c-0.33 0.213-2.181 0.391-4.113 0.394-2.749 5e-3 -3.562 0.136-3.742 0.606-0.18 0.467-0.973 0.6-3.588 0.6-2.472 0-3.331 0.132-3.257 0.5 0.069 0.346-0.737 0.562-2.615 0.7-1.493 0.11-2.847 0.414-3.009 0.676-0.169 0.275-1.416 0.512-2.948 0.562-2.037 0.066-2.607 0.211-2.449 0.624 0.155 0.403-0.257 0.538-1.636 0.538-1.014 0-1.843 0.18-1.843 0.4s-1.009 0.4-2.243 0.4c-1.829 0-2.2 0.111-2.012 0.6 0.183 0.478-0.133 0.6-1.558 0.6-1.322 0-1.787 0.156-1.787 0.6 0 0.417-0.419 0.6-1.371 0.6-0.755 0-1.642 0.27-1.972 0.6s-1.117 0.6-1.748 0.6c-0.632 0-1.32 0.171-1.53 0.381-0.209 0.209-1.055 0.426-1.88 0.482-0.909 0.061-1.499 0.305-1.499 0.619 0 0.474-0.601 0.673-1.896 0.626-0.272-0.01-0.404 0.13-0.293 0.31 0.296 0.479-0.292 0.735-1.945 0.847-0.883 0.059-1.466 0.305-1.466 0.617 0 0.286-0.448 0.518-1 0.518-0.55 0-1 0.18-1 0.4s-0.54 0.4-1.2 0.4c-0.8 0-1.2 0.2-1.2 0.6 0 0.366-0.373 0.6-0.953 0.6-0.636 0-1.028 0.283-1.176 0.851-0.174 0.663-0.449 0.808-1.247 0.656-0.693-0.133-1.024-0.02-1.024 0.348 0 0.341-0.458 0.545-1.224 0.545-0.713 0-1.12 0.167-0.976 0.4 0.231 0.374-0.564 0.577-1.694 0.431-0.289-0.037-0.395 0.192-0.257 0.553 0.165 0.43-8e-3 0.616-0.573 0.616-1.17 0-2.107 0.426-1.85 0.842 0.122 0.197-0.349 0.358-1.045 0.358-0.962 0-1.211 0.145-1.036 0.6 0.163 0.425-0.035 0.6-0.678 0.6-0.499 0-1.078 0.165-1.287 0.366-0.209 0.202-0.83 0.427-1.38 0.5-0.551 0.074-1.008 0.403-1.018 0.734-0.01 0.33-0.24 0.553-0.511 0.496s-0.598 0.168-0.725 0.5-0.662 0.604-1.189 0.604c-0.584 0-0.957 0.234-0.957 0.6 0 0.403-0.403 0.6-1.224 0.6-0.765 0-1.124 0.16-0.959 0.427 0.145 0.235-0.113 0.525-0.572 0.645-0.46 0.121-0.737 0.378-0.617 0.573 0.121 0.195-0.331 0.355-1.004 0.355-0.957 0-1.224 0.174-1.224 0.8 0 0.44-0.225 0.755-0.5 0.7s-0.455 0.125-0.4 0.4c0.084 0.422-1.224 0.725-2.386 0.552-0.157-0.023-0.182 0.225-0.057 0.553 0.139 0.363-4e-3 0.595-0.368 0.595-0.327 0-0.707 0.405-0.842 0.9-0.206 0.751-0.312 0.801-0.641 0.3-0.337-0.514-0.395-0.499-0.4 0.1-5e-3 0.625-0.945 0.947-2.144 0.735-0.185-0.033-0.265 0.155-0.178 0.417 0.248 0.743-2.465 3.246-3.285 3.032-0.597-0.156-1.999 0.907-1.999 1.516 0 0.446-1.42 1.8-1.889 1.8-0.281 0-0.511 0.18-0.511 0.4s-0.45 0.4-1 0.4-1 0.174-1 0.387c0 0.363-2.645 3.213-2.983 3.213-0.426 0-2.617 2.536-2.617 3.031 0 0.313-0.164 0.524-0.364 0.469s-0.92 0.517-1.6 1.272-1.236 1.237-1.236 1.071c0-0.165-0.27-0.03-0.6 0.3s-0.6 0.703-0.6 0.828c0 0.399-1.582 1.829-2.024 1.829-0.233 0-0.319 0.168-0.193 0.373 0.127 0.205-0.312 0.694-0.976 1.086-0.664 0.393-1.207 1.045-1.207 1.451 0 0.405-0.182 0.625-0.403 0.488-0.222-0.137-0.546 0.136-0.72 0.606s-0.488 0.887-0.697 0.926c-0.209 0.038-0.335 0.205-0.28 0.37s-0.221 0.3-0.614 0.3c-0.392 0-1.034 0.543-1.427 1.207-0.392 0.664-0.881 1.103-1.086 0.976-0.205-0.126-0.373 0.01-0.373 0.304 0 0.596-1.385 1.913-2.012 1.913-0.23 0-0.296 0.429-0.152 1 0.19 0.756 0.094 1-0.393 1-0.353 0-0.643 0.175-0.643 0.389 0 0.215-0.81 1.2-1.8 2.19s-1.8 2.049-1.8 2.354-0.45 0.893-1 1.306-1 0.989-1 1.28c0 0.29-0.182 0.416-0.405 0.278-0.225-0.139-0.516 0.308-0.657 1.011-0.138 0.693-0.495 1.354-0.793 1.468-0.297 0.114-0.441 0.369-0.319 0.566s-0.019 0.358-0.313 0.358c-0.739 0-1.913 1.45-1.913 2.362 0 0.414-0.27 0.856-0.6 0.983-0.33 0.126-0.6 0.486-0.6 0.8 0 0.313-0.27 0.673-0.6 0.8-0.33 0.126-0.6 0.424-0.6 0.662 0 0.237-0.45 0.848-1 1.358-0.559 0.518-1 1.373-1 1.938 0 0.556-0.27 1.115-0.6 1.242-0.33 0.126-0.6 0.596-0.6 1.042 0 0.456-0.264 0.813-0.6 0.813-0.33 0-0.6 0.27-0.6 0.6s-0.191 0.6-0.424 0.6-0.312 0.18-0.176 0.4 0.036 0.4-0.223 0.4c-0.279 0-0.382 0.338-0.253 0.832 0.159 0.607 0.064 0.772-0.353 0.612-0.4-0.153-0.571 0.078-0.571 0.769 0 0.983-1.24 2.587-2 2.587-0.22 0-0.4 0.45-0.4 1 0 0.622-0.227 1-0.6 1-0.395 0-0.6 0.395-0.6 1.157 0 0.654-0.258 1.256-0.593 1.385-0.347 0.133-0.492 0.491-0.35 0.862 0.135 0.352-0.034 0.849-0.379 1.115-0.342 0.265-0.679 0.893-0.75 1.397-0.07 0.504-0.308 0.874-0.528 0.823-0.22-0.052-0.5 0.436-0.622 1.084-0.122 0.647-0.437 1.132-0.7 1.077s-0.457 0.035-0.431 0.2c0.197 1.245-0.128 2.5-0.647 2.5-0.417 0-0.6 0.42-0.6 1.376 0 0.757-0.18 1.488-0.4 1.624s-0.4 0.667-0.4 1.181c0 0.513-0.27 1.037-0.6 1.164-0.33 0.126-0.6 0.68-0.6 1.23 0 0.724-0.165 0.936-0.6 0.77-0.463-0.178-0.6 0.09-0.6 1.179 0 1.635-0.353 2.752-0.784 2.486-0.165-0.102-0.215 0.259-0.112 0.802 0.138 0.721 0.015 0.988-0.457 0.988-0.499 0-0.647 0.408-0.647 1.787 0 1.425-0.122 1.741-0.6 1.558-0.48-0.184-0.6 0.139-0.6 1.612 0 1.372-0.153 1.843-0.6 1.843-0.433 0-0.6 0.444-0.6 1.6 0 1.071-0.177 1.6-0.537 1.6-0.371 0-0.559 0.647-0.609 2.1-0.041 1.155-0.249 2.16-0.464 2.233-0.214 0.074-0.39 0.819-0.39 1.658 0 0.985-0.212 1.605-0.6 1.754-0.433 0.166-0.6 0.845-0.6 2.442 0 1.557-0.148 2.183-0.5 2.113-0.333-0.067-0.567 0.633-0.7 2.1-0.11 1.21-0.385 2.168-0.61 2.13-0.259-0.044-0.355 0.949-0.259 2.7 0.127 2.337 0.051 2.77-0.49 2.77-0.538 0-0.641 0.548-0.641 3.4 0 2.756-0.114 3.4-0.6 3.4-0.497 0-0.6 0.756-0.6 4.4s-0.103 4.4-0.6 4.4c-0.33 0-0.579 0.135-0.553 0.3 0.406 2.569-0.143 15.3-0.66 15.3-0.531 0-0.607 1.02-0.569 7.6 0.036 6.286 0.142 7.6 0.613 7.6 0.475 0 0.995 12.903 0.616 15.3-0.026 0.165 0.223 0.3 0.553 0.3 0.491 0 0.6 0.689 0.6 3.8s0.109 3.8 0.6 3.8c0.484 0 0.6 0.624 0.6 3.213 0 2.486 0.136 3.264 0.6 3.442 0.447 0.172 0.6 0.884 0.6 2.788 0 1.438 0.175 2.557 0.4 2.557 0.229 0 0.4 1.2 0.4 2.8 0 2.222 0.124 2.8 0.6 2.8 0.461 0 0.6 0.511 0.6 2.2s0.139 2.2 0.6 2.2c0.446 0 0.6 0.469 0.6 1.824 0 1.113 0.156 1.727 0.4 1.576 0.347-0.214 0.575 1.089 0.507 2.9-0.01 0.275 0.232 0.5 0.537 0.5 0.326 0 0.556 0.413 0.556 1 0 1.151 1.841 1.48 2.254 0.402 0.127-0.328 0.391-0.498 0.588-0.376s0.358-0.059 0.358-0.402 0.27-0.624 0.6-0.624 0.6-0.178 0.6-0.395c0-0.609 1.315-2.005 1.889-2.005 0.281 0 0.511-0.242 0.511-0.538 0-0.684 1.377-1.952 1.732-1.596 0.148 0.147 0.268-0.033 0.268-0.399 0-0.367 0.27-0.667 0.6-0.667s0.6-0.27 0.6-0.6 0.281-0.6 0.624-0.6 0.511-0.181 0.374-0.403c-0.137-0.221 0.033-0.511 0.377-0.643s0.625-0.67 0.625-1.197c0-0.584 0.234-0.957 0.6-0.957 0.33 0 0.6-0.18 0.6-0.4 0-0.54 1.491-2 2.043-2 0.243 0 0.331-0.29 0.195-0.645-0.168-0.439-0.073-0.577 0.299-0.435 0.553 0.213 1.863-1 1.863-1.725 0-0.217 0.27-0.395 0.6-0.395s0.6-0.27 0.6-0.6 0.148-0.6 0.328-0.6c0.531 0 2.872-2.23 2.872-2.736 0-0.255 0.27-0.464 0.6-0.464s0.6-0.248 0.6-0.55c0-0.303 0.552-0.817 1.227-1.144s1.215-0.71 1.2-0.85c-0.088-0.831 0.019-1.075 0.373-0.856 0.22 0.136 0.4-0.033 0.4-0.376s0.27-0.624 0.6-0.624 0.6-0.27 0.6-0.6 0.209-0.6 0.464-0.6c0.778 0 2.736-2.484 2.736-3.472 0-0.558 0.239-0.928 0.6-0.928 0.33 0 0.6-0.281 0.6-0.624s0.161-0.524 0.358-0.402 0.461-0.048 0.588-0.376c0.126-0.329 0.461-0.598 0.744-0.598s0.754-0.54 1.046-1.2 0.786-1.2 1.098-1.2c0.311 0 0.566-0.27 0.566-0.6s0.27-0.6 0.6-0.6 0.6-0.18 0.6-0.4 0.226-0.4 0.502-0.4c0.277 0 0.742-0.54 1.034-1.2s0.786-1.2 1.098-1.2c0.311 0 0.566-0.27 0.566-0.6s0.27-0.6 0.6-0.6c0.52 0 0.6-1.6 0.6-12 0-9.963 0.094-12 0.555-12 0.434 0 0.568-0.93 0.617-4.294 0.048-3.295 0.198-4.37 0.645-4.62 0.416-0.232 0.583-1.06 0.583-2.882 0-1.406 0.18-2.668 0.4-2.804s0.4-1.329 0.4-2.652c0-1.605 0.2-2.605 0.6-3.005 0.354-0.354 0.6-1.332 0.6-2.384 0-1.217 0.191-1.857 0.6-2.014 0.433-0.166 0.6-0.844 0.6-2.431 0-1.65 0.131-2.149 0.524-1.998 0.372 0.142 0.552-0.28 0.62-1.458 0.053-0.912 0.267-1.718 0.476-1.791 0.209-0.074 0.38-0.819 0.38-1.658 0-0.985 0.212-1.605 0.6-1.754 0.395-0.151 0.6-0.777 0.6-1.83 0-1.258 0.128-1.551 0.6-1.37 0.439 0.169 0.6-0.05 0.6-0.812 0-0.574 0.172-1.043 0.382-1.043s0.49-0.675 0.622-1.5 0.41-1.813 0.618-2.195 0.378-0.967 0.378-1.3 0.27-0.605 0.6-0.605c0.4 0 0.6-0.4 0.6-1.2s0.2-1.2 0.6-1.2c0.375 0 0.6-0.379 0.6-1.013 0-0.556 0.27-1.116 0.6-1.242 0.33-0.127 0.6-0.661 0.6-1.188 0-0.584 0.234-0.957 0.6-0.957 0.373 0 0.6-0.378 0.6-1 0-0.55 0.169-1 0.375-1s0.431-0.585 0.5-1.3c0.075-0.778 0.326-1.26 0.625-1.2 0.289 0.058 0.5-0.305 0.5-0.857 0-0.527 0.27-1.061 0.6-1.188 0.33-0.126 0.6-0.686 0.6-1.242 0-0.557 0.231-1.013 0.513-1.013s0.553-0.495 0.603-1.1 0.269-1.16 0.487-1.233c0.219-0.074 0.397-0.383 0.397-0.688 0-0.328 0.245-0.46 0.6-0.324 0.454 0.175 0.6-0.072 0.6-1.012 0-0.838 0.195-1.243 0.6-1.243 0.33 0 0.6-0.27 0.6-0.6s0.281-0.6 0.624-0.6 0.535-0.142 0.428-0.316c-0.329-0.532 1.009-2.884 1.641-2.884 0.367 0 0.503-0.232 0.358-0.611-0.132-0.344 0.102-0.9 0.537-1.271 0.424-0.364 0.68-0.809 0.568-0.989-0.186-0.3 0.402-0.494 1.144-0.376 0.165 0.026 0.3-0.223 0.3-0.553s0.18-0.6 0.4-0.6 0.4-0.45 0.4-1c0-0.622 0.227-1 0.6-1 0.33 0 0.6-0.18 0.6-0.4 0-0.221 0.72-1.1 1.6-1.954s1.6-1.933 1.6-2.399c0-0.486 0.256-0.847 0.6-0.847 0.33 0 0.6-0.27 0.6-0.6s0.289-0.6 0.643-0.6c0.407 0 0.558-0.22 0.412-0.6-0.15-0.393 0.012-0.6 0.471-0.6 0.386 0 1.022-0.543 1.415-1.207 0.392-0.664 0.86-1.116 1.04-1.005 0.181 0.112 0.426-0.173 0.547-0.633 0.12-0.459 0.41-0.717 0.645-0.572s0.427-0.016 0.427-0.359 0.27-0.624 0.6-0.624 0.6-0.274 0.6-0.609c0-0.334 0.435-0.806 0.966-1.048s1.059-0.797 1.173-1.232 0.399-0.673 0.634-0.528 0.427-0.016 0.427-0.359 0.249-0.624 0.553-0.624c0.305 0 0.651-0.373 0.771-0.83 0.119-0.456 0.59-0.927 1.046-1.046 0.457-0.12 0.83-0.466 0.83-0.771 0-0.304 0.281-0.553 0.624-0.553s0.525-0.16 0.404-0.355c-0.272-0.44 0.747-1.337 1.109-0.975 0.145 0.145 0.263-0.037 0.263-0.403 0-0.445 0.333-0.667 1-0.667 0.55 0 1-0.18 1-0.4s0.27-0.4 0.6-0.4 0.6-0.18 0.6-0.4c0-0.519 1.481-2 2-2 0.22 0 0.4-0.27 0.4-0.6 0-0.373 0.378-0.6 1-0.6 0.55 0 1-0.193 1-0.429 0-0.694 1.08-1.571 1.936-1.571 0.436 0 1.247-0.54 1.803-1.2 0.555-0.66 1.379-1.2 1.831-1.2 0.943 0 2.489-1.182 2.186-1.671-0.175-0.284 1.04-0.519 1.944-0.376 0.165 0.026 0.3-0.223 0.3-0.553s0.27-0.6 0.6-0.6 0.6-0.27 0.6-0.6c0-0.373 0.378-0.6 1-0.6s1-0.227 1-0.6c0-0.4 0.4-0.6 1.2-0.6 0.66 0 1.2-0.18 1.2-0.4s0.257-0.4 0.571-0.4c0.315 0 0.843-0.271 1.174-0.602 0.331-0.332 1.052-0.64 1.6-0.685 0.549-0.046 0.966-0.27 0.927-0.498-0.04-0.228 0.423-0.472 1.028-0.542 0.63-0.072 1.1-0.371 1.1-0.7 0-0.341 0.395-0.573 0.976-0.573 0.537 0 1.088-0.18 1.224-0.4s0.678-0.4 1.204-0.4 1.112-0.279 1.303-0.619c0.19-0.341 0.739-0.649 1.22-0.685 0.48-0.037 0.873-0.298 0.873-0.581 0-0.323 0.527-0.515 1.413-0.515s1.498-0.223 1.642-0.6c0.156-0.405 0.791-0.6 1.954-0.6 0.949 0 1.784-0.177 1.858-0.393 0.073-0.216 0.79-0.441 1.594-0.5s1.386-0.23 1.293-0.379c-0.261-0.426 0.387-0.685 1.98-0.793 0.883-0.059 1.466-0.305 1.466-0.617 0-0.347 0.593-0.518 1.8-0.518 1.333 0 1.8-0.156 1.8-0.6 0-0.461 0.511-0.6 2.2-0.6 1.21 0 2.2-0.18 2.2-0.4 0-0.222 1.071-0.4 2.413-0.4 1.775 0 2.473-0.158 2.642-0.6 0.183-0.475 1.021-0.6 4.025-0.6 3.458 0 3.813-0.071 4.004-0.8 0.329-1.257 28.916-1.257 28.916 0 0 0.744 0.267 0.8 3.8 0.8 2.913 0 3.8 0.125 3.8 0.537 0 0.388 0.75 0.561 2.7 0.622 1.485 0.047 2.76 0.255 2.833 0.463 0.074 0.208 1.109 0.378 2.3 0.378 1.66 0 2.167 0.141 2.167 0.6 0 0.461 0.511 0.6 2.2 0.6s2.2 0.139 2.2 0.6c0 0.33 0.135 0.579 0.3 0.553 1.205-0.191 2.9 0.129 2.901 0.547 0 0.292 0.625 0.545 1.5 0.607 0.824 0.059 1.559 0.284 1.632 0.5 0.074 0.216 0.909 0.393 1.858 0.393 1.163 0 1.798 0.195 1.954 0.6 0.126 0.33 0.705 0.6 1.285 0.6 0.774 0 0.994 0.16 0.825 0.6-0.172 0.45 0.066 0.6 0.958 0.6 0.788 0 1.187 0.201 1.187 0.6 0 0.432 0.442 0.6 1.576 0.6 0.867 0 1.688 0.18 1.824 0.4s0.687 0.4 1.224 0.4c0.601 0 0.976 0.231 0.976 0.6 0 0.373 0.378 0.6 1 0.6s1 0.227 1 0.6c0 0.33 0.135 0.579 0.3 0.553 1.103-0.175 2.1 0.133 2.1 0.647 0 0.403 0.403 0.6 1.224 0.6 0.713 0 1.12 0.167 0.976 0.4-0.136 0.22 0.033 0.4 0.376 0.4s0.624 0.27 0.624 0.6c0 0.365 0.372 0.6 0.951 0.6 0.523 0 1.175 0.27 1.449 0.6s0.842 0.6 1.262 0.6c0.419 0 0.866 0.269 0.992 0.598 0.127 0.328 0.391 0.498 0.588 0.376s0.358 0.149 0.358 0.602c0 0.612 0.257 0.824 1 0.824 0.55 0 1 0.159 1 0.353 0 0.195 0.378 0.453 0.84 0.573 0.463 0.121 0.722 0.412 0.577 0.647-0.161 0.26 0.132 0.427 0.747 0.427 0.661 0 1.32 0.417 1.899 1.2 0.541 0.731 1.249 1.2 1.812 1.2 0.509 0 0.925 0.18 0.925 0.4s0.27 0.4 0.6 0.4 0.6 0.196 0.6 0.436c0 0.627 1.676 1.935 2.5 1.951 0.385 7e-3 0.7 0.294 0.7 0.637s0.148 0.532 0.329 0.42c0.367-0.227 1.671 1.146 1.671 1.761 0 0.217 0.243 0.395 0.54 0.395s0.954 0.54 1.46 1.2 1.173 1.2 1.483 1.2c0.311 0 0.465 0.161 0.343 0.358s0.059 0.466 0.402 0.597c0.342 0.132 0.511 0.421 0.374 0.642-0.143 0.23 0.188 0.403 0.77 0.403 1.077 0 2.628 1.075 2.628 1.821 0 0.244 0.45 0.685 1 0.979s1 0.775 1 1.068c0 0.292 0.242 0.532 0.538 0.532 0.856 0 1.862 1.367 1.862 2.531 0 0.702 0.214 1.069 0.624 1.069 0.343 0 0.512 0.18 0.376 0.4s0.143 0.4 0.619 0.4c0.579 0 0.795 0.186 0.651 0.561-0.129 0.338 0.107 0.644 0.598 0.773 0.447 0.117 0.694 0.404 0.549 0.639s0.016 0.427 0.359 0.427 0.624 0.289 0.624 0.643c0 0.407 0.22 0.558 0.6 0.412 0.365-0.14 0.6 0 0.6 0.358 0 0.323 0.264 0.587 0.587 0.587 0.358 0 0.498 0.235 0.358 0.6-0.146 0.38 5e-3 0.6 0.412 0.6 0.435 0 0.643 0.357 0.643 1.102 0 0.84 0.285 1.229 1.2 1.634 0.66 0.292 1.2 0.786 1.2 1.098 0 0.311 0.18 0.566 0.4 0.566s0.4 0.461 0.4 1.024 0.167 0.92 0.371 0.794 0.486 0.133 0.627 0.576 0.514 0.806 0.829 0.806c0.338 0 0.573 0.393 0.573 0.957 0 0.527 0.27 1.061 0.6 1.188 0.33 0.126 0.6 0.491 0.6 0.809 0 0.319 0.188 0.642 0.418 0.719 0.23 0.076 0.448 0.541 0.485 1.033s0.259 0.894 0.493 0.894c0.553 0 1.804 1.463 1.804 2.109 0 0.274 0.45 0.984 1 1.578 0.55 0.593 1 1.536 1 2.096 0 0.637 0.224 1.017 0.6 1.017 0.336 0 0.6 0.357 0.6 0.813 0 0.446 0.27 0.916 0.6 1.042 0.33 0.127 0.6 0.667 0.6 1.2 0 0.534 0.27 1.074 0.6 1.2 0.33 0.127 0.6 0.661 0.6 1.188 0 0.615 0.231 0.957 0.647 0.957 0.475 0 0.595 0.267 0.453 1.01-0.119 0.623 0.024 1.131 0.373 1.327 0.311 0.174 0.595 0.709 0.631 1.19 0.037 0.48 0.298 0.873 0.581 0.873 0.284 0 0.515 0.454 0.515 1.013 0 0.556 0.27 1.116 0.6 1.242 0.33 0.127 0.6 0.577 0.6 1 0 0.424 0.27 0.874 0.6 1 0.407 0.157 0.6 0.795 0.6 1.988 0 1.192 0.161 1.725 0.5 1.657 0.289-0.058 0.511 0.323 0.525 0.9 0.014 0.551 0.238 0.955 0.5 0.9 0.288-0.061 0.495 0.45 0.525 1.3 0.077 2.157 0.15 2.408 0.668 2.3 0.319-0.066 0.482 0.508 0.482 1.7 0 1.227 0.159 1.768 0.5 1.7 0.305-0.061 0.552 0.445 0.633 1.298 0.073 0.77 0.29 1.588 0.482 1.82 0.192 0.231 0.394 1.087 0.449 1.901 0.06 0.895 0.305 1.481 0.618 1.481 0.437 0 0.799 2.62 0.565 4.1-0.026 0.165 0.223 0.3 0.553 0.3 0.454 0 0.6 0.49 0.6 2.013 0 1.419 0.177 2.08 0.6 2.242 0.453 0.174 0.6 0.906 0.6 2.988 0 1.571 0.172 2.757 0.4 2.757 0.231 0 0.4 1.257 0.4 2.971 0 2.067 0.177 3.149 0.582 3.554 0.443 0.443 0.596 1.83 0.641 5.815 0.042 3.69 0.195 5.207 0.518 5.146 0.329-0.062 0.49 2.096 0.568 7.63 0.089 6.369 0.212 7.755 0.7 7.943 0.325 0.124 0.591 0.488 0.591 0.807 0 0.32 0.18 0.47 0.4 0.334 0.233-0.144 0.4 0.263 0.4 0.976 0 0.673 0.174 1.224 0.387 1.224 0.212 0 1.022 0.636 1.8 1.413 0.777 0.778 1.413 1.588 1.413 1.8 0 0.213 0.27 0.387 0.6 0.387s0.6 0.18 0.6 0.4 0.264 0.4 0.587 0.4c0.358 0 0.498 0.235 0.358 0.6-0.146 0.38 5e-3 0.6 0.412 0.6 0.354 0 0.643 0.281 0.643 0.624s0.192 0.504 0.427 0.359c0.236-0.146 0.528 0.122 0.652 0.599 0.125 0.475 0.437 0.782 0.695 0.683s0.699 0.341 0.981 0.978c0.303 0.686 0.819 1.157 1.266 1.157 0.506 0 0.678 0.197 0.524 0.6-0.14 0.364-2e-3 0.6 0.35 0.6 0.818 0 1.905 1.307 1.905 2.289 0 0.454 0.281 0.933 0.625 1.065 0.35 0.135 0.499 0.445 0.339 0.705-0.185 0.298-0.112 0.356 0.201 0.163 0.309-0.192 0.567-4e-3 0.701 0.51 0.129 0.491 0.435 0.727 0.773 0.598 0.338-0.13 0.561 0.04 0.561 0.427 0 0.354 0.255 0.643 0.566 0.643 0.312 0 0.805 0.538 1.096 1.196 0.291 0.657 0.717 1.152 0.946 1.1 0.228-0.053 0.494 0.084 0.591 0.304 0.241 0.552 2.932 2.996 3.301 2.998 0.165 1e-3 0.3 0.272 0.3 0.602s0.281 0.6 0.624 0.6 0.511 0.181 0.374 0.403c-0.137 0.221 0.033 0.511 0.377 0.643s0.625 0.49 0.625 0.797c0 0.306 0.27 0.557 0.6 0.557 0.373 0 0.6 0.378 0.6 1 0 0.55 0.18 1 0.4 1 0.634 0 1.866 1.402 1.692 1.925-0.087 0.261 0.104 0.475 0.425 0.475 0.814 0 4.181 3.305 3.981 3.907-0.096 0.286 0.186 0.493 0.669 0.493 0.458 0 0.788 0.225 0.733 0.5s0.125 0.455 0.4 0.4 0.5 0.17 0.5 0.5 0.18 0.6 0.4 0.6c0.599 0 1.871 1.388 1.711 1.868-0.083 0.249 0.585 0.418 1.656 0.418 0.987 0 1.782-0.11 1.767-0.243-0.153-1.311 0.143-3.243 0.466-3.043 0.244 0.151 0.4-0.448 0.4-1.534 0-1.214 0.191-1.854 0.6-2.011 0.423-0.162 0.6-0.823 0.6-2.242 0-1.523 0.146-2.013 0.6-2.013 0.472 0 0.6-0.559 0.6-2.629 0-1.803 0.188-2.817 0.6-3.228 0.384-0.384 0.6-1.372 0.6-2.748 0-1.181 0.18-2.259 0.4-2.395s0.4-1.677 0.4-3.424c0-2.556 0.117-3.176 0.6-3.176 0.493 0 0.6-0.711 0.6-4 0-3.263 0.109-4 0.591-4 0.498 0 0.609-1.221 0.7-7.7 0.08-5.627 0.235-7.676 0.578-7.61 0.345 0.066 0.481-1.928 0.513-7.5 0.038-6.571-0.038-7.59-0.569-7.59-0.517 0-1.066-12.731-0.66-15.3 0.026-0.165-0.223-0.3-0.553-0.3-0.497 0-0.6-0.756-0.6-4.4s-0.103-4.4-0.6-4.4c-0.487 0-0.6-0.647-0.6-3.424 0-2.18-0.145-3.333-0.4-3.176-0.334 0.206-0.606-2.639-0.507-5.3 0.01-0.275-0.232-0.5-0.537-0.5-0.4 0-0.556-0.56-0.556-2 0-1.511-0.147-2-0.6-2-0.467 0-0.6-0.533-0.6-2.4s-0.133-2.4-0.6-2.4c-0.431 0-0.6-0.441-0.6-1.567 0-0.861-0.169-1.626-0.376-1.7-0.207-0.073-0.432-1.078-0.5-2.233-0.08-1.347-0.303-2.1-0.624-2.1-0.317 0-0.5-0.587-0.5-1.6 0-1.156-0.167-1.6-0.6-1.6-0.447 0-0.6-0.471-0.6-1.843 0-1.473-0.12-1.796-0.6-1.612-0.477 0.183-0.6-0.129-0.6-1.524 0-0.965-0.188-1.817-0.418-1.894-0.23-0.076-0.447-0.536-0.484-1.022s-0.299-0.973-0.582-1.082c-0.302-0.116-0.516-0.861-0.516-1.798 0-1.258-0.128-1.551-0.6-1.37-0.454 0.175-0.6-0.072-0.6-1.012 0-0.838-0.195-1.243-0.6-1.243-0.4 0-0.6-0.4-0.6-1.2 0-0.66-0.18-1.2-0.4-1.2s-0.4-0.527-0.4-1.171c0-0.645-0.271-1.443-0.602-1.774-0.332-0.331-0.64-1.052-0.685-1.6-0.046-0.549-0.27-0.966-0.498-0.927-0.228 0.04-0.472-0.423-0.542-1.028-0.072-0.63-0.371-1.1-0.7-1.1-0.324 0-0.579-0.391-0.586-0.9-7e-3 -0.495-0.264-1.232-0.572-1.639-0.308-0.406-0.46-0.999-0.338-1.316 0.135-0.353 8e-3 -0.532-0.328-0.461-0.359 0.076-0.592-0.335-0.674-1.184-0.078-0.805-0.344-1.3-0.7-1.3-0.347 0-0.575-0.397-0.575-1 0-0.55-0.135-0.955-0.3-0.9-0.597 0.199-2.1-1.724-2.1-2.687 0-0.691-0.171-0.922-0.571-0.769-0.407 0.156-0.513-2e-3 -0.369-0.553 0.111-0.424-0.082-1.056-0.429-1.403s-0.631-0.824-0.631-1.059c0-0.236-0.225-0.384-0.5-0.329-0.281 0.056-0.555-0.381-0.627-1-0.072-0.63-0.371-1.1-0.7-1.1-0.377 0-0.573-0.433-0.573-1.267 0-0.696-0.109-1.157-0.243-1.024-0.317 0.317-1.328-0.618-1.091-1.009 0.099-0.165 0.01-0.3-0.199-0.3s-0.495-0.457-0.635-1.016c-0.141-0.559-0.43-0.909-0.644-0.777-0.213 0.132-0.388-0.13-0.388-0.583 0-0.466-0.261-0.824-0.6-0.824-0.335 0-0.6-0.356-0.6-0.807 0-0.809-2.526-3.593-3.259-3.593-0.215 0-0.359-0.315-0.32-0.7 0.127-1.252-0.013-1.752-0.421-1.5-0.22 0.136-0.4 9e-3 -0.4-0.281 0-0.291-0.45-0.867-1-1.28s-1-1.067-1-1.452c0-0.386-0.27-0.805-0.6-0.932-0.33-0.126-0.6-0.506-0.6-0.842 0-0.337-0.182-0.613-0.403-0.613-0.686 0-2.797-2.096-2.797-2.777 0-0.355-0.54-1.236-1.2-1.959-0.66-0.722-1.2-1.502-1.2-1.731 0-0.23-0.235-0.329-0.521-0.219-0.303 0.117-0.736-0.284-1.034-0.957-0.282-0.636-0.677-1.157-0.879-1.157-0.492 0-1.966-1.499-1.966-2 0-0.22-0.166-0.4-0.369-0.4-0.495 0-3.033-2.52-2.92-2.9 0.049-0.165-0.101-0.3-0.334-0.3-0.47 0-2.777-2.4-2.777-2.889 0-0.171-0.178-0.311-0.395-0.311-0.49 0-8.805-8.348-8.805-8.841 0-0.198-0.444-0.359-0.986-0.359-0.981 0-3.414-1.986-3.414-2.787 0-0.227-0.27-0.413-0.6-0.413s-0.555-0.225-0.5-0.5c0.062-0.309-0.244-0.452-0.8-0.375-0.943 0.131-3.3-2.021-3.3-3.014 0-0.301-0.493-0.511-1.2-0.511-0.8 0-1.2-0.2-1.2-0.6 0-0.33-0.27-0.6-0.6-0.6s-0.6-0.18-0.6-0.4-0.289-0.4-0.643-0.4c-0.407 0-0.558-0.22-0.412-0.6 0.172-0.45-0.066-0.6-0.958-0.6-0.744 0-1.187-0.206-1.187-0.553 0-0.305-0.378-0.653-0.84-0.773-0.463-0.121-0.722-0.412-0.577-0.647 0.166-0.268-0.201-0.427-0.983-0.427-0.686 0-1.149-0.16-1.028-0.355 0.12-0.195-0.157-0.452-0.617-0.573-0.472-0.123-0.718-0.408-0.566-0.655 0.149-0.24 0.122-0.411-0.059-0.38-1.102 0.192-2.13-0.116-2.13-0.637 0-0.373-0.378-0.6-1-0.6-0.55 0-1-0.18-1-0.4s-0.249-0.4-0.553-0.4c-0.305 0-0.648-0.36-0.763-0.8-0.125-0.479-0.546-0.8-1.047-0.8-0.46 0-0.837-0.18-0.837-0.4s-0.54-0.4-1.2-0.4c-0.8 0-1.2-0.2-1.2-0.6 0-0.375-0.379-0.6-1.013-0.6-0.556 0-1.116-0.27-1.242-0.6-0.127-0.33-0.661-0.6-1.188-0.6-0.584 0-0.957-0.234-0.957-0.6 0-0.33-0.191-0.6-0.424-0.6s-0.304 0.193-0.158 0.43c0.146 0.236-0.113 0.192-0.576-0.097s-0.842-0.662-0.842-0.829-0.54-0.304-1.2-0.304c-0.836 0-1.2-0.195-1.2-0.643 0-0.479-0.245-0.582-0.954-0.404-0.743 0.186-1.003 0.054-1.173-0.597-0.121-0.46-0.366-0.75-0.546-0.643-0.533 0.315-2.2-0.471-1.929-0.91 0.147-0.237-0.254-0.403-0.974-0.403-0.673 0-1.224-0.18-1.224-0.4s-0.45-0.4-1-0.4c-0.605 0-1-0.228-1-0.577 0-0.393-0.543-0.616-1.7-0.7-1.188-0.086-1.665-0.288-1.584-0.672 0.066-0.309-0.109-0.463-0.4-0.353-0.747 0.285-2.412-0.419-2.118-0.895 0.152-0.245-0.385-0.403-1.374-0.403-0.893 0-1.624-0.17-1.624-0.377s-0.765-0.432-1.7-0.5c-1.098-0.079-1.665-0.3-1.6-0.623 0.068-0.341-0.473-0.5-1.7-0.5-1.333 0-1.8-0.156-1.8-0.6 0-0.431-0.44-0.6-1.557-0.6-1.015 0-1.638-0.209-1.788-0.6-0.162-0.422-0.82-0.6-2.219-0.6-1.094 0-2.1-0.18-2.236-0.4s-0.976-0.4-1.866-0.4c-1.275 0-1.571-0.128-1.389-0.6 0.19-0.496-0.225-0.6-2.386-0.6-1.792 0-2.805-0.189-3.216-0.6-0.399-0.398-1.397-0.6-2.972-0.6-1.739 0-2.371-0.146-2.371-0.547 0-0.413-0.808-0.565-3.294-0.618-2.412-0.051-3.381-0.226-3.62-0.653-0.247-0.442-1.187-0.582-3.906-0.582-2.12 0-3.58-0.163-3.58-0.4 0-0.538-39.568-0.538-40.4 0m12.8 153.6c0 0.229-1.2 0.4-2.8 0.4-2.222 0-2.8 0.124-2.8 0.6 0 0.518-1.504 0.858-2.886 0.652-0.157-0.023-0.182 0.225-0.057 0.553 0.176 0.458-0.1 0.595-1.202 0.595-1.107 0-1.378 0.136-1.2 0.6 0.175 0.455-0.074 0.6-1.036 0.6-0.742 0-1.164 0.166-1.019 0.4 0.147 0.238-0.329 0.4-1.176 0.4-0.999 0-1.424 0.179-1.424 0.6 0 0.33-0.18 0.6-0.4 0.6s-0.4 0.27-0.4 0.6-0.27 0.6-0.6 0.6-0.6 0.27-0.6 0.6c0 0.352-0.372 0.605-0.9 0.613-1.032 0.014-2.3 0.859-2.3 1.531 0 0.251-0.27 0.456-0.6 0.456s-0.6 0.23-0.6 0.511c0 0.574-1.396 1.889-2.005 1.889-0.217 0-0.395 0.45-0.395 1s-0.18 1-0.4 1-0.4 0.23-0.4 0.511c0 0.532-1.379 1.889-1.919 1.889-0.171 0-0.34 0.393-0.377 0.873-0.036 0.481-0.344 1.03-0.685 1.22-0.34 0.191-0.619 0.777-0.619 1.303s-0.18 1.068-0.4 1.204-0.4 0.681-0.4 1.211c0 0.692-0.169 0.899-0.6 0.734-0.48-0.184-0.6 0.139-0.6 1.612 0 1.372-0.153 1.843-0.6 1.843-0.434 0-0.6 0.446-0.6 1.613 0 1.085-0.202 1.69-0.618 1.849-0.795 0.305-0.836 18.574-0.042 18.425 0.288-0.055 0.506 0.707 0.582 2.034 0.08 1.393 0.32 2.197 0.7 2.343 0.367 0.141 0.578 0.789 0.578 1.779 0 1.164 0.162 1.557 0.643 1.557 0.479 0 0.582 0.245 0.403 0.958-0.163 0.649-0.047 1.033 0.357 1.188 0.328 0.126 0.597 0.685 0.597 1.241 0 0.634 0.225 1.013 0.6 1.013 0.33 0 0.6 0.27 0.6 0.6s0.27 0.6 0.6 0.6c0.336 0 0.6 0.357 0.6 0.813 0 0.446 0.27 0.916 0.6 1.042 0.33 0.127 0.6 0.481 0.6 0.788 0 0.306 0.27 0.557 0.6 0.557s0.6 0.281 0.6 0.624 0.18 0.512 0.4 0.376 0.4 0.123 0.4 0.576c0 0.466 0.261 0.824 0.6 0.824 0.33 0 0.6 0.289 0.6 0.643 0 0.407 0.22 0.558 0.6 0.412 0.365-0.14 0.6 0 0.6 0.358 0 0.323 0.264 0.587 0.587 0.587 0.358 0 0.498 0.235 0.358 0.6-0.146 0.38 5e-3 0.6 0.412 0.6 0.354 0 0.643 0.27 0.643 0.6s0.27 0.6 0.6 0.6 0.6 0.241 0.6 0.536c0 0.34 0.423 0.51 1.162 0.466 0.822-0.049 1.102 0.087 0.957 0.465-0.114 0.298 0.06 0.533 0.395 0.533 0.33 0 0.704 0.27 0.831 0.6 0.126 0.33 0.666 0.6 1.2 0.6 0.533 0 1.073 0.27 1.2 0.6 0.126 0.33 0.696 0.6 1.266 0.6 0.597 0 0.93 0.172 0.786 0.405-0.139 0.225 0.298 0.514 0.985 0.651 0.679 0.136 1.332 0.404 1.45 0.596 0.118 0.191 1.105 0.348 2.192 0.348 1.49 0 1.976 0.148 1.976 0.6 0 0.481 0.603 0.6 3.029 0.6 2.158 0 3.2 0.172 3.628 0.6 0.845 0.845 6.641 0.845 7.486 0 0.421-0.421 1.449-0.6 3.441-0.6 2.156 0 2.897-0.145 3.071-0.6 0.161-0.419 0.814-0.6 2.164-0.6 1.064 0 2.045-0.18 2.181-0.4s0.584-0.4 0.995-0.4 1.018-0.27 1.348-0.6 0.888-0.6 1.241-0.6 0.745-0.27 0.871-0.6c0.127-0.33 0.667-0.6 1.2-0.6 0.534 0 1.074-0.27 1.2-0.6 0.127-0.33 0.481-0.6 0.788-0.6 0.306 0 0.557-0.18 0.557-0.4s0.45-0.4 1-0.4 1-0.18 1-0.4c0-0.519 1.481-2 2-2 0.22 0 0.4-0.266 0.4-0.591s0.45-0.885 1-1.246c0.55-0.36 1-0.904 1-1.209s0.27-0.554 0.6-0.554 0.555-0.225 0.5-0.5 0.125-0.455 0.4-0.4 0.508-0.125 0.517-0.4 0.549-0.942 1.2-1.481c0.651-0.54 1.183-1.305 1.183-1.7 0-0.396 0.281-0.719 0.624-0.719s0.511-0.182 0.374-0.403c-0.137-0.222 0.136-0.546 0.606-0.72s0.842-0.443 0.826-0.597c-0.127-1.198 0.045-1.865 0.461-1.78 0.269 0.055 0.555-0.35 0.633-0.9 0.079-0.55 0.308-1.171 0.51-1.38 0.201-0.209 0.366-0.98 0.366-1.713 0-0.815 0.233-1.421 0.6-1.562 0.42-0.162 0.6-0.817 0.6-2.188 0-1.473 0.148-1.957 0.6-1.957 0.515 0 0.6-1.261 0.6-8.951 0-7.469-0.099-9.034-0.6-9.449-0.345-0.286-0.6-1.158-0.6-2.049 0-1.112-0.17-1.551-0.6-1.551-0.42 0-0.6-0.424-0.6-1.414 0-0.778-0.286-1.85-0.634-2.382-0.349-0.533-0.519-1.157-0.377-1.386 0.142-0.23-0.022-0.418-0.365-0.418-0.391 0-0.624-0.357-0.624-0.957 0-0.527-0.27-1.061-0.6-1.188-0.33-0.126-0.6-0.469-0.6-0.762 0-0.292-0.72-1.281-1.6-2.197-1.009-1.05-1.6-2.04-1.6-2.681 0-0.558-0.178-1.015-0.395-1.015-0.609 0-2.005-1.315-2.005-1.889 0-0.281-0.27-0.511-0.6-0.511s-0.6-0.27-0.6-0.6-0.27-0.6-0.6-0.6-0.6-0.18-0.6-0.4-0.534-0.4-1.187-0.4c-0.892 0-1.13-0.15-0.958-0.6 0.143-0.371-1e-3 -0.6-0.379-0.6-0.335 0-0.848-0.54-1.14-1.2-0.401-0.905-0.796-1.2-1.61-1.2-0.593 0-1.19-0.18-1.326-0.4s-0.706-0.4-1.266-0.4c-0.742 0-0.957-0.163-0.789-0.6 0.172-0.45-0.066-0.6-0.958-0.6-0.788 0-1.187-0.201-1.187-0.6 0-0.433-0.444-0.6-1.6-0.6s-1.6-0.167-1.6-0.6c0-0.476-0.575-0.6-2.776-0.6-1.527 0-2.888-0.18-3.024-0.4-0.15-0.242-3.004-0.4-7.224-0.4-4.384 0-6.976 0.149-6.976 0.4m119.2 98.219c0 0.319-0.18 0.581-0.4 0.581s-0.4 0.27-0.4 0.6-0.27 0.6-0.6 0.6-0.6 0.27-0.6 0.6-0.27 0.6-0.6 0.6c-0.405 0-0.6 0.405-0.6 1.243 0 0.959-0.142 1.188-0.621 1.004-0.356-0.136-0.516-0.069-0.376 0.158 0.234 0.378-2.072 2.795-2.665 2.795-0.156 0-0.399 0.363-0.54 0.806s-0.391 0.722-0.555 0.62c-0.347-0.214-1.643 1.19-1.643 1.779 0 0.217-0.27 0.395-0.6 0.395-0.347 0-0.6 0.362-0.6 0.857 0 0.471-0.524 1.357-1.164 1.969s-1.06 1.216-0.933 1.343c0.126 0.127-0.17 0.231-0.66 0.231s-0.794 0.156-0.676 0.347-0.317 0.755-0.967 1.253-1.085 1.062-0.967 1.253c0.195 0.315-0.376 0.514-1.133 0.394-0.165-0.026-0.3 0.474-0.3 1.11 0 0.681-0.258 1.256-0.625 1.397-0.344 0.132-0.515 0.42-0.38 0.639 0.143 0.229-0.016 0.297-0.374 0.16-0.44-0.169-0.621 7e-3 -0.621 0.604 0 0.483-0.257 0.843-0.6 0.843-0.33 0-0.6 0.18-0.6 0.4s-0.281 0.4-0.624 0.4-0.511 0.181-0.374 0.403c0.137 0.221-0.033 0.511-0.377 0.643s-0.625 0.447-0.625 0.701c0 0.498-1.609 1.677-2.1 1.538-0.165-0.047-0.3 0.455-0.3 1.115 0 0.691-0.212 1.202-0.5 1.204-0.275 2e-3 -0.9 0.51-1.39 1.13-1.272 1.611-2.836 3.266-3.086 3.266-0.629 0-1.824 1.5-1.824 2.289 0 0.501-0.18 0.911-0.4 0.911s-0.4 0.18-0.4 0.4-0.36 0.76-0.8 1.2-0.98 0.8-1.2 0.8-0.4 0.18-0.4 0.4-0.289 0.4-0.643 0.4c-0.407 0-0.558 0.22-0.412 0.6 0.206 0.537 0.032 0.661-0.801 0.573-0.14-0.015-0.523 0.525-0.85 1.2s-0.841 1.227-1.144 1.227c-0.32 0-0.55 0.418-0.55 1 0 0.652-0.224 1-0.643 1-0.407 0-0.558 0.22-0.412 0.6 0.156 0.408-0.022 0.6-0.558 0.6-0.433 0-0.787 0.193-0.787 0.429 0 0.531-1.009 1.571-1.525 1.571-0.21 0-0.481 0.378-0.601 0.84-0.14 0.535-0.398 0.731-0.709 0.538-0.322-0.199-0.386-0.135-0.187 0.187 0.193 0.311-3e-3 0.569-0.538 0.709-0.462 0.12-0.84 0.468-0.84 0.773 0 0.304-0.18 0.553-0.4 0.553s-0.4 0.422-0.4 0.938c0 1.001-1.114 2.262-1.998 2.262-0.295 0-0.417 0.118-0.272 0.263 0.395 0.396-0.556 1.368-1.043 1.067-0.261-0.161-0.328-0.014-0.175 0.384 0.174 0.453 0.075 0.579-0.332 0.423-0.392-0.15-0.58 0.047-0.58 0.608 0 0.573-0.185 0.759-0.6 0.6-0.369-0.142-0.6 0-0.6 0.369 0 0.33-0.27 0.704-0.6 0.831-0.33 0.126-0.6 0.686-0.6 1.242 0 0.557-0.193 1.013-0.429 1.013-0.235 0-0.685 0.257-1 0.571-0.314 0.315-0.571 0.765-0.571 1 0 0.236-0.27 0.429-0.6 0.429s-0.6 0.27-0.6 0.6-0.27 0.6-0.6 0.6-0.6 0.27-0.6 0.6-0.174 0.6-0.386 0.6c-0.767 0-2.814 2.394-2.814 3.29 0 0.843-1.405 2.19-2.086 2-0.157-0.044-0.182 0.187-0.057 0.515 0.126 0.327 0.057 0.595-0.153 0.595-0.566 0-2.104 1.424-2.104 1.947 0 0.249-0.193 0.453-0.429 0.453-0.673 0-1.615 1.113-1.953 2.308-0.17 0.601-0.535 1.04-0.812 0.976-0.308-0.071-0.412 0.123-0.268 0.5 0.13 0.339 0.065 0.616-0.146 0.616-0.61 0-1.992 1.326-1.992 1.913 0 0.294-0.171 0.429-0.38 0.299-0.209-0.129-0.578 0.136-0.82 0.588s-0.639 0.7-0.882 0.549c-0.267-0.165-0.328-0.089-0.154 0.192 0.16 0.26 0.011 0.57-0.339 0.705-0.344 0.132-0.625 0.49-0.625 0.797 0 0.306-0.225 0.512-0.5 0.457-0.281-0.056-0.555 0.381-0.627 1-0.072 0.63-0.371 1.1-0.7 1.1-0.315 0-0.573 0.27-0.573 0.6s-0.289 0.6-0.643 0.6c-0.387 0-0.557 0.223-0.427 0.561 0.129 0.337-0.105 0.644-0.587 0.77-0.441 0.115-0.9 0.583-1.019 1.039-0.12 0.457-0.535 0.83-0.924 0.83s-0.806 0.378-0.926 0.84c-0.121 0.462-0.41 0.723-0.642 0.579-0.257-0.158-0.329-0.017-0.185 0.36 0.169 0.44-7e-3 0.621-0.604 0.621-0.633 0-0.843 0.25-0.843 1 0 0.55-0.18 1-0.4 1s-0.4 0.27-0.4 0.6-0.281 0.6-0.624 0.6-0.525 0.16-0.404 0.355c0.255 0.413-0.736 1.348-1.072 1.011-0.125-0.124-0.343 0.138-0.484 0.583-0.141 0.446-0.61 0.922-1.042 1.059s-0.686 0.411-0.564 0.608c0.121 0.197-0.146 0.587-0.594 0.867-0.449 0.28-0.816 0.826-0.816 1.213s-0.168 0.704-0.373 0.704-0.491 0.373-0.636 0.829c-0.164 0.515-0.485 0.744-0.848 0.605-0.33-0.127-0.477-0.051-0.338 0.173 0.135 0.219-0.036 0.507-0.38 0.639s-0.625 0.49-0.625 0.797c0 0.306-0.18 0.557-0.4 0.557-0.54 0-2 1.491-2 2.043 0 0.243-0.27 0.339-0.6 0.212-0.365-0.14-0.6 0-0.6 0.358 0 0.323-0.18 0.587-0.4 0.587s-0.4 0.54-0.4 1.2c0 0.8-0.2 1.2-0.6 1.2-0.33 0-0.6 0.18-0.6 0.4s-0.281 0.4-0.624 0.4-0.518 0.171-0.388 0.38c0.129 0.209-0.136 0.578-0.588 0.82s-0.717 0.611-0.588 0.82c0.13 0.209 0.036 0.38-0.207 0.38-0.244 0-0.86 0.45-1.37 1s-1.092 1-1.294 1c-0.201 0-0.405 0.466-0.452 1.036-0.112 1.345-0.437 1.843-0.985 1.505-0.283-0.175-0.349-0.035-0.185 0.393 0.185 0.482 0.039 0.666-0.532 0.666-0.433 0-0.742 0.225-0.687 0.5s-0.125 0.455-0.4 0.4-0.455 0.05-0.4 0.233c0.135 0.449-2.698 3.267-3.284 3.267-0.255 0-0.364 0.161-0.242 0.358s-0.048 0.461-0.376 0.588c-0.329 0.126-0.598 0.685-0.598 1.241 0 0.634-0.225 1.013-0.6 1.013-0.33 0-0.6 0.27-0.6 0.6s-0.27 0.6-0.6 0.6-0.6 0.27-0.6 0.6-0.249 0.6-0.553 0.6c-0.305 0-0.648 0.36-0.763 0.799s-0.631 0.968-1.146 1.175c-0.516 0.206-0.788 0.387-0.604 0.401s-0.311 0.652-1.1 1.418-1.434 1.666-1.434 2-0.18 0.607-0.4 0.607-0.4 0.27-0.4 0.6c0 0.4-0.4 0.6-1.2 0.6s-1.2-0.2-1.2-0.6c0-0.33-0.27-0.6-0.6-0.6s-0.6-0.27-0.6-0.6-0.27-0.6-0.6-0.6-0.6-0.18-0.6-0.4-0.264-0.4-0.587-0.4c-0.358 0-0.498-0.235-0.358-0.6 0.146-0.38-5e-3 -0.6-0.412-0.6-0.419 0-0.643-0.348-0.643-1 0-0.622-0.227-1-0.6-1-0.333 0-0.6-0.356-0.6-0.8 0-0.44-0.201-0.8-0.447-0.8s-1.131-0.705-1.967-1.566c-0.836-0.862-1.625-1.462-1.753-1.334s-0.233-0.187-0.233-0.7-0.12-0.813-0.268-0.666c-0.461 0.461-1.732-1.013-1.732-2.009 0-0.522-0.279-1.057-0.62-1.188-0.637-0.244-2.98-2.443-2.98-2.796 0-0.368-1.14-1.341-1.571-1.341-0.401 0-0.599-0.566-0.466-1.33 0.031-0.181-0.121-0.22-0.338-0.085-0.619 0.382-2.025-1.275-2.025-2.385 0-0.639-0.225-1-0.624-1-0.343 0-0.525-0.16-0.404-0.355 0.12-0.195-0.157-0.452-0.617-0.573-0.459-0.12-0.717-0.41-0.572-0.645s-0.016-0.427-0.359-0.427-0.624-0.27-0.624-0.6-0.27-0.6-0.6-0.6-0.6-0.27-0.6-0.6-0.205-0.6-0.456-0.6c-0.672 0-1.517-1.268-1.531-2.3-8e-3 -0.528-0.261-0.9-0.613-0.9-0.33 0-0.6-0.27-0.6-0.6s-0.27-0.6-0.6-0.6-0.6-0.27-0.6-0.6-0.27-0.6-0.6-0.6-0.6-0.281-0.6-0.624-0.18-0.512-0.4-0.376-0.4-0.033-0.4-0.376-0.27-0.624-0.6-0.624-0.6-0.27-0.6-0.6-0.178-0.6-0.395-0.6c-0.766 0-2.005-1.388-2.005-2.246 0-0.478-0.281-0.976-0.625-1.108s-0.514-0.422-0.377-0.643c0.137-0.222-0.031-0.403-0.374-0.403s-0.624-0.27-0.624-0.6-0.27-0.6-0.6-0.6-0.6-0.27-0.6-0.6-0.27-0.6-0.6-0.6-0.6-0.18-0.6-0.4-0.27-0.4-0.6-0.4-0.6-0.255-0.6-0.567c0-0.311-0.178-0.626-0.397-0.7-0.218-0.073-0.437-0.628-0.487-1.233s-0.321-1.1-0.603-1.1-0.513-0.18-0.513-0.4-0.194-0.4-0.431-0.4c-0.674 0-2.769-2.265-2.769-2.993 0-0.36-0.168-0.551-0.373-0.424s-0.655-0.173-1-0.665c-0.345-0.493-0.627-0.766-0.627-0.607s-0.36-0.071-0.8-0.511-0.8-1.141-0.8-1.557c0-0.417-0.27-0.861-0.6-0.988-0.33-0.126-0.6-0.516-0.6-0.866s-0.18-0.525-0.4-0.389-0.4-0.033-0.4-0.376-0.174-0.624-0.387-0.624c-0.672 0-3.064-2.647-2.883-3.191 0.103-0.309-0.011-0.406-0.281-0.239-0.25 0.154-0.563-1e-3 -0.695-0.345s-0.49-0.625-0.797-0.625c-0.352 0-0.557-0.441-0.557-1.2 0-0.732-0.208-1.2-0.532-1.2-0.293 0-0.774-0.45-1.068-1s-0.865-1-1.268-1c-0.402 0-0.732-0.27-0.732-0.6s-0.18-0.6-0.4-0.6-0.4-0.289-0.4-0.643c0-0.407-0.22-0.558-0.6-0.412-0.38 0.145-0.6-6e-3 -0.6-0.413 0-0.942-1.21-1.705-2.729-1.719-1.17-0.011-2.471 0.704-2.471 1.358 0 0.408-1.587 1.829-2.043 1.829-0.243 0-0.339 0.27-0.212 0.6 0.156 0.408-0.022 0.6-0.558 0.6-0.438 0-0.787 0.27-0.787 0.609 0 0.334-0.45 0.813-1 1.064-0.55 0.25-1 0.781-1 1.179 0 0.51-0.196 0.648-0.666 0.467-0.464-0.178-0.573-0.105-0.359 0.24 0.197 0.319 6e-3 0.573-0.535 0.715-0.462 0.12-0.84 0.352-0.84 0.513 0 0.454-2.56 3.026-2.899 2.913-0.166-0.055-0.301 0.17-0.301 0.5s-0.249 0.6-0.553 0.6c-0.305 0-0.651 0.373-0.771 0.83-0.119 0.456-0.59 0.927-1.046 1.046-0.463 0.121-0.83 0.545-0.83 0.958 0 0.527-0.192 0.667-0.666 0.485-0.464-0.178-0.573-0.105-0.359 0.24 0.197 0.319 6e-3 0.573-0.535 0.715-0.462 0.12-0.84 0.438-0.84 0.705s-0.45 0.727-1 1.021-1 0.775-1 1.068c0 0.292-0.27 0.532-0.6 0.532s-0.6 0.27-0.6 0.6-0.289 0.6-0.643 0.6c-0.407 0-0.558 0.22-0.412 0.6 0.131 0.343 8e-3 0.6-0.288 0.6-0.7 0-2.338 1.786-1.973 2.151 0.16 0.16 6e-3 0.182-0.344 0.048-0.431-0.166-0.707 0.033-0.861 0.619-0.124 0.477-0.416 0.745-0.652 0.599-0.235-0.145-0.427 0.016-0.427 0.359s-0.27 0.624-0.6 0.624-0.555 0.217-0.5 0.482-0.125 0.49-0.4 0.5-0.503 0.15-0.507 0.311c-0.01 0.465-2.774 3.107-3.249 3.107-0.236 0-0.322 0.279-0.191 0.621 0.131 0.341 0.074 0.52-0.125 0.396-0.2-0.123-0.646 0.058-0.992 0.404-0.345 0.345-0.977 0.654-1.404 0.687-0.427 0.032-0.701 0.18-0.609 0.33 0.258 0.416-0.852 1.195-1.224 0.859-0.18-0.164-0.19-0.06-0.023 0.23 0.203 0.35 0.016 0.602-0.558 0.752-0.556 0.146-0.782 0.437-0.636 0.818 0.156 0.406 0.039 0.52-0.373 0.362-0.33-0.127-0.58-0.102-0.557 0.055 0.135 0.902-0.119 1.346-0.652 1.141-0.408-0.156-0.6 0.022-0.6 0.558 0 0.433-0.238 0.787-0.529 0.787-0.356 0-0.558 0.662-0.621 2.037-0.065 1.421 0.043 1.953 0.355 1.76 0.263-0.163 0.542 0.08 0.674 0.585 0.136 0.52 0.444 0.78 0.774 0.653 0.31-0.119 0.547 0.045 0.547 0.378 0 0.323 0.18 0.587 0.4 0.587s0.4 0.289 0.4 0.643c0 0.407 0.22 0.558 0.6 0.412 0.537-0.206 0.782 0.19 0.647 1.045-0.026 0.165 0.223 0.3 0.553 0.3 0.399 0 0.6 0.399 0.6 1.187 0 0.892 0.15 1.13 0.6 0.958 0.38-0.146 0.6 5e-3 0.6 0.412 0 0.354 0.289 0.643 0.643 0.643 0.407 0 0.558 0.22 0.412 0.6-0.14 0.365 0 0.6 0.358 0.6 0.323 0 0.587 0.18 0.587 0.4s0.27 0.4 0.6 0.4 0.6 0.27 0.6 0.6 0.18 0.6 0.4 0.6c0.796 0 2.043 1.635 1.809 2.373-0.144 0.453 0 0.822 0.379 0.967 0.337 0.129 0.612 0.467 0.612 0.75s0.54 0.754 1.2 1.046 1.2 0.706 1.2 0.92 0.58 0.919 1.289 1.567c0.709 0.647 1.114 1.181 0.9 1.186s0.196 0.298 0.911 0.65c1.017 0.501 1.3 0.892 1.3 1.791 0 0.667 0.215 1.15 0.512 1.15 0.281 0 0.776 0.377 1.1 0.837 1.112 1.583 1.883 2.363 2.335 2.363 0.249 0 0.453 0.27 0.453 0.6s0.27 0.6 0.6 0.6 0.6 0.27 0.6 0.6 0.281 0.6 0.624 0.6 0.524 0.161 0.402 0.358 0.048 0.461 0.376 0.588c0.329 0.126 0.598 0.685 0.598 1.241 0 0.557 0.18 1.013 0.4 1.013 0.556 0 2.226 1.723 2.084 2.149-0.064 0.192 0.181 0.235 0.544 0.096 0.463-0.178 0.596-0.085 0.444 0.311-0.132 0.344 0.101 0.648 0.596 0.778 0.447 0.117 0.706 0.384 0.577 0.594-0.13 0.209 0.14 0.479 0.6 0.6 0.459 0.12 0.717 0.41 0.572 0.645s0.016 0.427 0.359 0.427 0.624 0.276 0.624 0.614c0 0.9 1.204 2.586 1.846 2.586 0.305 0 0.554 0.27 0.554 0.6s0.18 0.6 0.4 0.6 0.4 0.231 0.4 0.512c0 0.282 0.556 0.723 1.237 0.979 0.68 0.257 1.127 0.644 0.994 0.859-0.134 0.216 0.123 0.508 0.569 0.65s0.708 0.426 0.58 0.632c-0.127 0.205 0.051 0.482 0.395 0.614s0.625 0.586 0.625 1.009c0 0.424 0.27 0.874 0.6 1 0.33 0.127 0.6 0.481 0.6 0.788 0 0.306 0.27 0.557 0.6 0.557s0.6 0.27 0.6 0.6 0.18 0.6 0.4 0.6 0.4 0.27 0.4 0.6 0.251 0.6 0.557 0.6c0.307 0 0.665 0.281 0.797 0.625s0.39 0.534 0.572 0.421c0.493-0.305 1.674 1.239 1.674 2.187 0 0.882 0.867 1.967 1.571 1.967 0.236 0 0.429 0.27 0.429 0.6s0.174 0.6 0.387 0.6c0.54 0 3.213 2.728 3.213 3.28 0 0.249 0.105 0.348 0.233 0.22 0.324-0.323 1.767 1.178 1.767 1.838 0 0.296 0.45 1.061 1 1.7 0.549 0.639 0.999 1.297 1 1.462 0 0.165 0.177 0.3 0.393 0.3 0.541 0 3.207 2.632 3.207 3.167 0 0.238 0.27 0.433 0.6 0.433s0.6 0.18 0.6 0.4 0.292 0.4 0.65 0.4c0.504 0 0.598 0.261 0.418 1.158-0.187 0.939-0.076 1.199 0.591 1.373 0.452 0.118 0.703 0.407 0.558 0.642s0.016 0.427 0.359 0.427 0.624 0.264 0.624 0.587c0 0.358 0.235 0.498 0.6 0.358 0.38-0.146 0.6 5e-3 0.6 0.412 0 0.354 0.18 0.643 0.4 0.643s0.4 0.249 0.4 0.553c0 0.305 0.378 0.653 0.84 0.773 0.463 0.121 0.722 0.412 0.577 0.647s0.016 0.427 0.359 0.427 0.624 0.264 0.624 0.586c0 0.323 0.505 1.103 1.122 1.734s1.044 1.383 0.948 1.67 9e-3 0.408 0.233 0.27c0.476-0.294 1.414 0.689 1.027 1.077-0.145 0.145-3e-3 0.263 0.314 0.263 0.687 0 3.156 2.173 3.156 2.777 0 0.233 0.18 0.423 0.4 0.423s0.4 0.323 0.4 0.719c0 0.395 0.532 1.16 1.183 1.7 0.651 0.539 1.191 1.114 1.2 1.276 0.026 0.451 1.35 1.905 1.734 1.905 0.482 0 1.483 1.061 1.483 1.571 0 0.236 0.27 0.429 0.6 0.429 0.373 0 0.6 0.378 0.6 1 0 0.55 0.226 1 0.502 1 0.277 0 0.742 0.54 1.034 1.2s0.786 1.2 1.098 1.2c0.311 0 0.566 0.27 0.566 0.6s0.27 0.6 0.6 0.6 0.6 0.264 0.6 0.587c0 0.358 0.235 0.498 0.6 0.358 0.416-0.16 0.6 0.027 0.6 0.612 0 0.497 0.256 0.843 0.624 0.843 0.343 0 0.512 0.18 0.376 0.4s0.033 0.4 0.376 0.4c0.539 0 0.849 0.972 0.671 2.1-0.026 0.165 0.223 0.3 0.553 0.3s0.6 0.18 0.6 0.4 0.27 0.4 0.6 0.4 0.6 0.27 0.6 0.6 0.289 0.6 0.643 0.6c0.416 0 0.559 0.218 0.404 0.621-0.131 0.341-0.08 0.523 0.112 0.404 0.438-0.27 1.33 0.752 0.971 1.112-0.145 0.145 0.037 0.263 0.403 0.263 0.367 0 0.667 0.17 0.667 0.377 0 0.208 0.549 0.702 1.219 1.098 0.937 0.553 1.168 0.922 0.999 1.595-0.161 0.641-4e-3 0.944 0.587 1.132 0.444 0.14 0.711 0.411 0.594 0.6s0.33 0.665 0.994 1.057c0.664 0.393 1.207 0.945 1.207 1.227 0 0.283 0.18 0.514 0.4 0.514s0.4 0.264 0.4 0.587c0 0.327 0.238 0.497 0.536 0.382 0.31-0.119 0.943 0.392 1.5 1.21 1.097 1.611 1.745 1.778 2.37 0.61 0.239-0.446 0.585-0.718 0.769-0.605 0.184 0.114 0.432-0.169 0.553-0.629 0.12-0.459 0.41-0.717 0.645-0.572s0.427-0.016 0.427-0.359 0.27-0.624 0.6-0.624c0.403 0 0.6-0.403 0.6-1.224 0-0.673 0.148-1.132 0.329-1.02 0.367 0.227 1.671-1.146 1.671-1.761 0-0.217 0.289-0.395 0.643-0.395 0.407 0 0.558-0.22 0.412-0.6-0.135-0.352-5e-3 -0.6 0.315-0.6 0.299 0 0.652-0.281 0.784-0.625s0.39-0.534 0.572-0.421c0.427 0.264 1.674-1.185 1.674-1.946 0-0.375 0.233-0.493 0.655-0.332 0.452 0.174 0.592 0.078 0.454-0.312-0.281-0.79 0.438-2.044 0.979-1.71 0.292 0.181 0.359 0.045 0.193-0.388-0.232-0.604 0.127-0.854 1.019-0.713 0.165 0.026 0.3-0.223 0.3-0.553s0.18-0.6 0.4-0.6 0.4-0.27 0.4-0.6 0.27-0.6 0.6-0.6 0.6-0.27 0.6-0.6 0.148-0.6 0.328-0.6c0.64 0 2.872-2.282 2.872-2.936 0-0.725 1.359-2.264 2-2.264 0.22 0 0.4-0.27 0.4-0.6s0.27-0.6 0.6-0.6 0.6-0.189 0.6-0.419c0-0.231 0.45-0.836 1-1.346s1-1.131 1-1.381 0.225-0.409 0.5-0.354c0.298 0.06 0.55-0.417 0.624-1.178 0.095-0.985 0.271-1.222 0.765-1.032 0.409 0.157 0.543 0.086 0.37-0.195-0.155-0.25 0.249-0.75 0.934-1.154 0.664-0.393 1.207-0.855 1.207-1.027 0-0.464 1.533-1.914 2.024-1.914 0.233 0 0.327-0.156 0.209-0.347s0.321-0.758 0.976-1.26c0.725-0.555 1.191-1.281 1.191-1.853 0-0.597 0.235-0.94 0.643-0.94 0.407 0 0.558-0.22 0.412-0.6-0.158-0.412 0.025-0.6 0.581-0.6 0.446 0 0.713-0.16 0.592-0.355-0.12-0.195 0.176-0.457 0.659-0.584 0.483-0.126 0.766-0.341 0.629-0.478-0.296-0.297 1.108-1.783 1.684-1.783 0.22 0 0.4-0.27 0.4-0.6s0.27-0.6 0.6-0.6c0.373 0 0.6-0.378 0.6-1s0.227-1 0.6-1c0.33 0 0.6-0.27 0.6-0.6s0.18-0.6 0.4-0.6 0.4-0.27 0.4-0.6 0.27-0.6 0.6-0.6 0.6-0.27 0.6-0.6 0.157-0.6 0.35-0.6c0.734 0 4.05-3.58 4.05-4.373 0-0.468 0.26-0.827 0.6-0.827 0.33 0 0.6-0.27 0.6-0.6s0.27-0.6 0.6-0.6 0.6-0.27 0.6-0.6 0.27-0.6 0.6-0.6 0.6-0.193 0.6-0.429c0-0.553 1.018-1.571 1.571-1.571 0.236 0 0.429-0.27 0.429-0.6s0.27-0.6 0.6-0.6 0.6-0.27 0.6-0.6 0.27-0.6 0.6-0.6c0.381 0 0.6-0.383 0.6-1.051 0-0.993 3.968-5.349 4.872-5.349 0.18 0 0.328-0.27 0.328-0.6s0.278-0.6 0.618-0.6c0.339 0 0.588-0.225 0.552-0.5-0.139-1.073 0.048-1.9 0.43-1.9 0.22 0 0.76-0.36 1.2-0.8s0.71-0.8 0.6-0.8 0.16-0.36 0.6-0.8 0.98-0.8 1.2-0.8 0.4-0.27 0.4-0.6 0.27-0.6 0.6-0.6 0.6-0.27 0.6-0.6 0.289-0.6 0.643-0.6c0.414 0 0.559-0.219 0.406-0.616-0.163-0.425-0.026-0.58 0.443-0.5 0.42 0.072 0.731-0.189 0.814-0.684 0.216-1.279 0.988-2.6 1.519-2.6 0.269 0 0.597-0.281 0.729-0.625s0.422-0.514 0.643-0.377c0.222 0.137 0.403-6e-3 0.403-0.318 0-0.313 0.45-0.906 1-1.319s1-0.978 1-1.256 0.27-0.505 0.6-0.505c0.333 0 0.6-0.356 0.6-0.8 0-0.858 1.313-2.4 2.043-2.4 0.243 0 0.343-0.259 0.222-0.576-0.143-0.371 0.199-0.762 0.957-1.098 0.659-0.291 1.178-0.831 1.178-1.224 0-0.386 0.27-0.702 0.6-0.702s0.6-0.18 0.6-0.4 0.226-0.4 0.502-0.4c0.455 0 0.975-0.923 1.648-2.925 0.135-0.399 0.438-0.606 0.674-0.46 0.259 0.16 0.379-0.028 0.303-0.475-0.086-0.501 0.099-0.722 0.573-0.684 0.385 0.03 0.7-0.195 0.7-0.5 0-0.306 0.27-0.556 0.6-0.556s0.555-0.141 0.5-0.313c-0.132-0.412 2.403-2.887 2.957-2.887 0.236 0 0.332-0.252 0.213-0.561-0.127-0.333 0.098-0.642 0.558-0.762 0.518-0.136 0.772-0.551 0.772-1.263 0-0.584 0.148-0.97 0.329-0.858 0.367 0.227 1.671-1.146 1.671-1.761 0-0.217 0.249-0.395 0.553-0.395 0.305 0 0.647-0.358 0.762-0.795 0.114-0.438 0.675-0.973 1.246-1.19 0.572-0.217 1.039-0.67 1.039-1.005 0-0.336 0.18-0.61 0.4-0.61s0.4-0.45 0.4-1 0.161-1 0.358-1 0.782-0.447 1.3-0.993 1.178-0.996 1.466-1 0.411-0.188 0.274-0.41c-0.137-0.221 0.033-0.511 0.377-0.643s0.626-0.445 0.626-0.697c1e-3 -0.251 0.528-0.81 1.172-1.241 0.643-0.431 1.082-0.926 0.975-1.1s0.175-0.316 0.628-0.316c0.649 0 0.824-0.255 0.824-1.2 0-0.66 0.18-1.2 0.4-1.2s0.4-0.27 0.4-0.6 0.27-0.6 0.6-0.6 0.6-0.18 0.6-0.4 0.27-0.4 0.6-0.4 0.6-0.165 0.6-0.367 0.72-1.117 1.6-2.033 1.6-2.011 1.6-2.433 0.27-0.767 0.6-0.767 0.6-0.206 0.6-0.457c0-0.554 2.231-2.743 2.796-2.743 0.222 0 0.404-0.198 0.404-0.44 0-0.572 2.588-3.16 3.16-3.16 0.242 0 0.44-0.45 0.44-1s0.18-1 0.4-1 0.4-0.27 0.4-0.6 0.27-0.6 0.6-0.6 0.6-0.27 0.6-0.6 0.27-0.6 0.6-0.6 0.6-0.281 0.6-0.624 0.18-0.512 0.4-0.376 0.4 0.057 0.4-0.176c0-0.537 1.469-2.024 2-2.024 0.22 0 0.4-0.27 0.4-0.6s0.27-0.6 0.6-0.6c0.373 0 0.6-0.378 0.6-1s0.227-1 0.6-1c0.339 0 0.6-0.358 0.6-0.824 0-0.453 0.18-0.712 0.4-0.576s0.4-0.033 0.4-0.376 0.27-0.624 0.6-0.624 0.6-0.255 0.6-0.566c0-0.312 0.54-0.806 1.2-1.098s1.2-0.742 1.2-1 0.209-0.539 0.463-0.624c0.255-0.085 0.524-0.55 0.598-1.033 0.136-0.89 3.471-4.479 4.163-4.479 0.207 0 0.376-0.193 0.376-0.429 0-0.553 1.018-1.571 1.571-1.571 0.236 0 0.429-0.251 0.429-0.557 0-0.307 0.27-0.661 0.6-0.788 0.33-0.126 0.6-0.602 0.6-1.056 0-0.824 2.331-3.472 2.9-3.293 0.165 0.052 0.3-0.086 0.3-0.306 0-0.519 1.481-2 2-2 0.22 0 0.4-0.193 0.4-0.429 0-0.553 1.018-1.571 1.571-1.571 0.236 0 0.429-0.45 0.429-1 0-1.033 1.245-2.6 2.067-2.6 0.256 0 0.346-0.12 0.199-0.268-0.356-0.355 0.912-1.732 1.596-1.732 0.296 0 0.538-0.27 0.538-0.6s0.27-0.6 0.6-0.6 0.6-0.251 0.6-0.557c0-0.307 0.27-0.661 0.6-0.788 0.33-0.126 0.6-0.57 0.6-0.986 0-0.417 0.45-1.095 1-1.508s1.001-0.933 1.001-1.156c1e-3 -0.223 0.528-0.758 1.172-1.189 0.644-0.432 1.138-0.972 1.099-1.2-0.04-0.229 0.115-0.384 0.344-0.344 0.228 0.039 0.768-0.455 1.2-1.099 0.431-0.644 1.009-1.171 1.284-1.172 0.275 0 0.5-0.457 0.5-1.014 0-0.556 0.27-1.116 0.6-1.242 1.081-0.415-0.076-2.945-1.347-2.945-0.249 0-0.453-0.27-0.453-0.6s-0.18-0.6-0.4-0.6-0.4-0.387-0.4-0.86c0-0.902-2.076-3.18-3.338-3.662-0.406-0.155-0.832-0.641-0.947-1.08-0.114-0.439-0.457-0.798-0.762-0.798-0.304 0-0.553-0.152-0.553-0.339 0-0.532-1.444-2.061-1.947-2.061-0.249 0-0.453-0.249-0.453-0.553 0-0.305-0.397-0.658-0.883-0.784-0.485-0.127-0.763-0.35-0.619-0.495 0.255-0.255-0.611-1.368-1.064-1.368-0.362 0-4.234-3.958-4.234-4.327 0-0.186-0.45-0.579-1-0.873s-1-0.775-1-1.068c0-0.292-0.27-0.532-0.6-0.532-0.373 0-0.6-0.378-0.6-1 0-0.55-0.18-1-0.4-1s-0.4-0.249-0.4-0.553c0-0.305-0.378-0.653-0.84-0.773-0.463-0.121-0.722-0.412-0.577-0.647s0.074-0.427-0.159-0.427c-0.442 0-2.024-1.43-2.024-1.829 0-0.376-0.95-1.197-1.725-1.491-0.399-0.151-0.611-0.46-0.471-0.687 0.141-0.227 0.107-0.366-0.074-0.308-0.328 0.105-3.33-2.715-3.33-3.127 0-0.287-1.082-1.358-1.371-1.358-0.388 0-1.829-1.576-1.829-2 0-0.22-0.18-0.4-0.4-0.4-0.558 0-1.985-1.482-1.7-1.767 0.128-0.128-0.167-0.233-0.657-0.233-0.496 0-0.78-0.178-0.641-0.403 0.137-0.221-0.033-0.511-0.377-0.643s-0.625-0.49-0.625-0.797c0-0.306-0.255-0.557-0.567-0.557-0.311 0-0.626-0.152-0.7-0.339-0.259-0.659-4.333-0.887-4.333-0.242" fill="#accc14"/>
<path d="m192.3 66.699c4.015 0.066 10.585 0.066 14.6 0 4.015-0.065 0.73-0.118-7.3-0.118s-11.315 0.053-7.3 0.118m-168.45 63.516c-0.137 0.358-0.234 0.951-0.215 1.318s0.193 0.136 0.387-0.513c0.377-1.262 0.244-1.887-0.172-0.805m-8.925 31.585c2e-3 1.32 0.077 1.812 0.166 1.093s0.087-1.799-4e-3 -2.4-0.164-0.013-0.162 1.307m147.88 23.4c0 0.66 0.07 1.2 0.155 1.2s0.233-0.54 0.33-1.2 0.028-1.2-0.154-1.2-0.331 0.54-0.331 1.2m-147.87 57.8c2e-3 1.54 0.074 2.121 0.161 1.291s0.085-2.09-3e-3 -2.8c-0.089-0.71-0.16-0.031-0.158 1.509m298.97 17.282c0.495 0.096 1.305 0.096 1.8 0 0.495-0.095 0.09-0.173-0.9-0.173s-1.395 0.078-0.9 0.173m-25.44 27.184c-0.641 0.695-0.461 1.029 0.3 0.559 0.296-0.183 0.471-0.516 0.389-0.739-0.086-0.236-0.377-0.16-0.689 0.18m-101.76 205.6c0.275 0.111 0.5 0.457 0.5 0.768 0 0.312 0.186 0.567 0.414 0.567 0.281 0 0.276-0.258-0.014-0.8-0.235-0.44-0.647-0.786-0.914-0.768-0.366 0.023-0.363 0.081 0.014 0.233" fill="#b0cc14"/>
<path d="m192.3 66.699c4.015 0.066 10.585 0.066 14.6 0 4.015-0.065 0.73-0.118-7.3-0.118s-11.315 0.053-7.3 0.118m-168.45 63.516c-0.137 0.358-0.234 0.951-0.215 1.318s0.193 0.136 0.387-0.513c0.377-1.262 0.244-1.887-0.172-0.805m-8.925 31.585c2e-3 1.32 0.077 1.812 0.166 1.093s0.087-1.799-4e-3 -2.4-0.164-0.013-0.162 1.307m147.88 23.4c0 0.66 0.07 1.2 0.155 1.2s0.233-0.54 0.33-1.2 0.028-1.2-0.154-1.2-0.331 0.54-0.331 1.2m-147.87 57.8c2e-3 1.54 0.074 2.121 0.161 1.291s0.085-2.09-3e-3 -2.8c-0.089-0.71-0.16-0.031-0.158 1.509m298.97 17.282c0.495 0.096 1.305 0.096 1.8 0 0.495-0.095 0.09-0.173-0.9-0.173s-1.395 0.078-0.9 0.173m-25.44 27.184c-0.641 0.695-0.461 1.029 0.3 0.559 0.296-0.183 0.471-0.516 0.389-0.739-0.086-0.236-0.377-0.16-0.689 0.18m-101.76 205.6c0.275 0.111 0.5 0.457 0.5 0.768 0 0.312 0.186 0.567 0.414 0.567 0.281 0 0.276-0.258-0.014-0.8-0.235-0.44-0.647-0.786-0.914-0.768-0.366 0.023-0.363 0.081 0.014 0.233" fill="#b0cc14"/>
<path d="m192.3 66.699c4.015 0.066 10.585 0.066 14.6 0 4.015-0.065 0.73-0.118-7.3-0.118s-11.315 0.053-7.3 0.118m-168.45 63.516c-0.137 0.358-0.234 0.951-0.215 1.318s0.193 0.136 0.387-0.513c0.377-1.262 0.244-1.887-0.172-0.805m-8.925 31.585c2e-3 1.32 0.077 1.812 0.166 1.093s0.087-1.799-4e-3 -2.4-0.164-0.013-0.162 1.307m147.88 23.4c0 0.66 0.07 1.2 0.155 1.2s0.233-0.54 0.33-1.2 0.028-1.2-0.154-1.2-0.331 0.54-0.331 1.2m-147.87 57.8c2e-3 1.54 0.074 2.121 0.161 1.291s0.085-2.09-3e-3 -2.8c-0.089-0.71-0.16-0.031-0.158 1.509m298.97 17.282c0.495 0.096 1.305 0.096 1.8 0 0.495-0.095 0.09-0.173-0.9-0.173s-1.395 0.078-0.9 0.173m-25.44 27.184c-0.641 0.695-0.461 1.029 0.3 0.559 0.296-0.183 0.471-0.516 0.389-0.739-0.086-0.236-0.377-0.16-0.689 0.18m-101.76 205.6c0.275 0.111 0.5 0.457 0.5 0.768 0 0.312 0.186 0.567 0.414 0.567 0.281 0 0.276-0.258-0.014-0.8-0.235-0.44-0.647-0.786-0.914-0.768-0.366 0.023-0.363 0.081 0.014 0.233" fill="#b0cc14"/>
<path d="m192.3 66.699c4.015 0.066 10.585 0.066 14.6 0 4.015-0.065 0.73-0.118-7.3-0.118s-11.315 0.053-7.3 0.118m-168.45 63.516c-0.137 0.358-0.234 0.951-0.215 1.318s0.193 0.136 0.387-0.513c0.377-1.262 0.244-1.887-0.172-0.805m-8.925 31.585c2e-3 1.32 0.077 1.812 0.166 1.093s0.087-1.799-4e-3 -2.4-0.164-0.013-0.162 1.307m147.88 23.4c0 0.66 0.07 1.2 0.155 1.2s0.233-0.54 0.33-1.2 0.028-1.2-0.154-1.2-0.331 0.54-0.331 1.2m-147.87 57.8c2e-3 1.54 0.074 2.121 0.161 1.291s0.085-2.09-3e-3 -2.8c-0.089-0.71-0.16-0.031-0.158 1.509m298.97 17.282c0.495 0.096 1.305 0.096 1.8 0 0.495-0.095 0.09-0.173-0.9-0.173s-1.395 0.078-0.9 0.173m-25.44 27.184c-0.641 0.695-0.461 1.029 0.3 0.559 0.296-0.183 0.471-0.516 0.389-0.739-0.086-0.236-0.377-0.16-0.689 0.18m-101.76 205.6c0.275 0.111 0.5 0.457 0.5 0.768 0 0.312 0.186 0.567 0.414 0.567 0.281 0 0.276-0.258-0.014-0.8-0.235-0.44-0.647-0.786-0.914-0.768-0.366 0.023-0.363 0.081 0.014 0.233" fill="#b0cc14"/>
</g>
</svg>
